<svg width="23" height="30" viewBox="0 0 23 30" fill="none" xmlns="http://www.w3.org/2000/svg">
<g clip-path="url(#clip0_20_1564)">
<path d="M3.75 0C1.68164 0 0 1.68164 0 3.75V26.25C0 28.3184 1.68164 30 3.75 30H18.75C20.8184 30 22.5 28.3184 22.5 26.25V3.75C22.5 1.68164 20.8184 0 18.75 0H3.75ZM5.625 3.75H16.875C17.9121 3.75 18.75 4.58789 18.75 5.625V7.5C18.75 8.53711 17.9121 9.375 16.875 9.375H5.625C4.58789 9.375 3.75 8.53711 3.75 7.5V5.625C3.75 4.58789 4.58789 3.75 5.625 3.75ZM7.5 13.125C7.5 13.6223 7.30246 14.0992 6.95083 14.4508C6.59919 14.8025 6.12228 15 5.625 15C5.12772 15 4.65081 14.8025 4.29917 14.4508C3.94754 14.0992 3.75 13.6223 3.75 13.125C3.75 12.6277 3.94754 12.1508 4.29917 11.7992C4.65081 11.4475 5.12772 11.25 5.625 11.25C6.12228 11.25 6.59919 11.4475 6.95083 11.7992C7.30246 12.1508 7.5 12.6277 7.5 13.125ZM5.625 20.625C5.12772 20.625 4.65081 20.4275 4.29917 20.0758C3.94754 19.7242 3.75 19.2473 3.75 18.75C3.75 18.2527 3.94754 17.7758 4.29917 17.4242C4.65081 17.0725 5.12772 16.875 5.625 16.875C6.12228 16.875 6.59919 17.0725 6.95083 17.4242C7.30246 17.7758 7.5 18.2527 7.5 18.75C7.5 19.2473 7.30246 19.7242 6.95083 20.0758C6.59919 20.4275 6.12228 20.625 5.625 20.625ZM3.75 24.375C3.75 23.3379 4.58789 22.5 5.625 22.5H11.25C12.2871 22.5 13.125 23.3379 13.125 24.375C13.125 25.4121 12.2871 26.25 11.25 26.25H5.625C4.58789 26.25 3.75 25.4121 3.75 24.375ZM11.25 15C10.7527 15 10.2758 14.8025 9.92418 14.4508C9.57254 14.0992 9.375 13.6223 9.375 13.125C9.375 12.6277 9.57254 12.1508 9.92418 11.7992C10.2758 11.4475 10.7527 11.25 11.25 11.25C11.7473 11.25 12.2242 11.4475 12.5758 11.7992C12.9275 12.1508 13.125 12.6277 13.125 13.125C13.125 13.6223 12.9275 14.0992 12.5758 14.4508C12.2242 14.8025 11.7473 15 11.25 15ZM13.125 18.75C13.125 19.2473 12.9275 19.7242 12.5758 20.0758C12.2242 20.4275 11.7473 20.625 11.25 20.625C10.7527 20.625 10.2758 20.4275 9.92418 20.0758C9.57254 19.7242 9.375 19.2473 9.375 18.75C9.375 18.2527 9.57254 17.7758 9.92418 17.4242C10.2758 17.0725 10.7527 16.875 11.25 16.875C11.7473 16.875 12.2242 17.0725 12.5758 17.4242C12.9275 17.7758 13.125 18.2527 13.125 18.75ZM16.875 15C16.3777 15 15.9008 14.8025 15.5492 14.4508C15.1975 14.0992 15 13.6223 15 13.125C15 12.6277 15.1975 12.1508 15.5492 11.7992C15.9008 11.4475 16.3777 11.25 16.875 11.25C17.3723 11.25 17.8492 11.4475 18.2008 11.7992C18.5525 12.1508 18.75 12.6277 18.75 13.125C18.75 13.6223 18.5525 14.0992 18.2008 14.4508C17.8492 14.8025 17.3723 15 16.875 15ZM18.75 18.75C18.75 19.2473 18.5525 19.7242 18.2008 20.0758C17.8492 20.4275 17.3723 20.625 16.875 20.625C16.3777 20.625 15.9008 20.4275 15.5492 20.0758C15.1975 19.7242 15 19.2473 15 18.75C15 18.2527 15.1975 17.7758 15.5492 17.4242C15.9008 17.0725 16.3777 16.875 16.875 16.875C17.3723 16.875 17.8492 17.0725 18.2008 17.4242C18.5525 17.7758 18.75 18.2527 18.75 18.75ZM16.875 26.25C16.3777 26.25 15.9008 26.0525 15.5492 25.7008C15.1975 25.3492 15 24.8723 15 24.375C15 23.8777 15.1975 23.4008 15.5492 23.0492C15.9008 22.6975 16.3777 22.5 16.875 22.5C17.3723 22.5 17.8492 22.6975 18.2008 23.0492C18.5525 23.4008 18.75 23.8777 18.75 24.375C18.75 24.8723 18.5525 25.3492 18.2008 25.7008C17.8492 26.0525 17.3723 26.25 16.875 26.25Z" fill="white"/>
</g>
<defs>
<clipPath id="clip0_20_1564">
<path d="M0 0H22.5V30H0V0Z" fill="white"/>
</clipPath>
</defs>
</svg>
