<svg width="21" height="24" viewBox="0 0 21 24" fill="none" xmlns="http://www.w3.org/2000/svg">
<g clip-path="url(#clip0_2_1193)">
<path d="M6 0C6.82969 0 7.5 0.670312 7.5 1.5V3H13.5V1.5C13.5 0.670312 14.1703 0 15 0C15.8297 0 16.5 0.670312 16.5 1.5V3H18.75C19.9922 3 21 4.00781 21 5.25V7.5H0V5.25C0 4.00781 1.00781 3 2.25 3H4.5V1.5C4.5 0.670312 5.17031 0 6 0ZM0 9H21V21.75C21 22.9922 19.9922 24 18.75 24H2.25C1.00781 24 0 22.9922 0 21.75V9ZM15.4219 14.2969C15.8625 13.8563 15.8625 13.1438 15.4219 12.7078C14.9813 12.2719 14.2688 12.2672 13.8328 12.7078L9.37969 17.1609L7.17656 14.9578C6.73594 14.5172 6.02344 14.5172 5.5875 14.9578C5.15156 15.3984 5.14687 16.1109 5.5875 16.5469L8.5875 19.5469C9.02812 19.9875 9.74063 19.9875 10.1766 19.5469L15.4219 14.2969Z" fill="white"/>
</g>
<defs>
<clipPath id="clip0_2_1193">
<path d="M0 0H21V24H0V0Z" fill="white"/>
</clipPath>
</defs>
</svg>
