<svg width="24" height="21" viewBox="0 0 24 21" fill="none" xmlns="http://www.w3.org/2000/svg">
<path d="M3 1.5C3 0.670312 2.32969 0 1.5 0C0.670312 0 0 0.670312 0 1.5V17.25C0 19.3219 1.67812 21 3.75 21H22.5C23.3297 21 24 20.3297 24 19.5C24 18.6703 23.3297 18 22.5 18H3.75C3.3375 18 3 17.6625 3 17.25V1.5ZM22.0594 5.55938C22.6453 4.97344 22.6453 4.02188 22.0594 3.43594C21.4734 2.85 20.5219 2.85 19.9359 3.43594L15 8.37656L12.3094 5.68594C11.7234 5.1 10.7719 5.1 10.1859 5.68594L4.93594 10.9359C4.35 11.5219 4.35 12.4734 4.93594 13.0594C5.52188 13.6453 6.47344 13.6453 7.05938 13.0594L11.25 8.87344L13.9406 11.5641C14.5266 12.15 15.4781 12.15 16.0641 11.5641L22.0641 5.56406L22.0594 5.55938Z" fill="white"/>
</svg>
