<svg width="24" height="24" viewBox="0 0 24 24" fill="none" xmlns="http://www.w3.org/2000/svg">
<g clip-path="url(#clip0_2_1118)">
<path d="M12 0C15.1826 0 18.2348 1.26428 20.4853 3.51472C22.7357 5.76516 24 8.8174 24 12C24 15.1826 22.7357 18.2348 20.4853 20.4853C18.2348 22.7357 15.1826 24 12 24C8.8174 24 5.76516 22.7357 3.51472 20.4853C1.26428 18.2348 0 15.1826 0 12C0 8.8174 1.26428 5.76516 3.51472 3.51472C5.76516 1.26428 8.8174 0 12 0ZM10.875 5.625V12C10.875 12.375 11.0625 12.7266 11.3766 12.9375L15.8766 15.9375C16.3922 16.2844 17.0906 16.1437 17.4375 15.6234C17.7844 15.1031 17.6437 14.4094 17.1234 14.0625L13.125 11.4V5.625C13.125 5.00156 12.6234 4.5 12 4.5C11.3766 4.5 10.875 5.00156 10.875 5.625Z" fill="white"/>
</g>
<defs>
<clipPath id="clip0_2_1118">
<path d="M0 0H24V24H0V0Z" fill="white"/>
</clipPath>
</defs>
</svg>
