<svg width="18" height="24" viewBox="0 0 18 24" fill="none" xmlns="http://www.w3.org/2000/svg">
<g clip-path="url(#clip0_2_1169)">
<path d="M3 0C1.34531 0 0 1.34531 0 3V21C0 22.6547 1.34531 24 3 24H15C16.6547 24 18 22.6547 18 21V7.5H12C11.1703 7.5 10.5 6.82969 10.5 6V0H3ZM12 0V6H18L12 0ZM3.75 3H6.75C7.1625 3 7.5 3.3375 7.5 3.75C7.5 4.1625 7.1625 4.5 6.75 4.5H3.75C3.3375 4.5 3 4.1625 3 3.75C3 3.3375 3.3375 3 3.75 3ZM3.75 6H6.75C7.1625 6 7.5 6.3375 7.5 6.75C7.5 7.1625 7.1625 7.5 6.75 7.5H3.75C3.3375 7.5 3 7.1625 3 6.75C3 6.3375 3.3375 6 3.75 6ZM4.5 10.5H13.5C14.3297 10.5 15 11.1703 15 12V15C15 15.8297 14.3297 16.5 13.5 16.5H4.5C3.67031 16.5 3 15.8297 3 15V12C3 11.1703 3.67031 10.5 4.5 10.5ZM4.5 12V15H13.5V12H4.5ZM11.25 19.5H14.25C14.6625 19.5 15 19.8375 15 20.25C15 20.6625 14.6625 21 14.25 21H11.25C10.8375 21 10.5 20.6625 10.5 20.25C10.5 19.8375 10.8375 19.5 11.25 19.5Z" fill="white"/>
</g>
<defs>
<clipPath id="clip0_2_1169">
<path d="M0 0H18V24H0V0Z" fill="white"/>
</clipPath>
</defs>
</svg>
