<svg width="18" height="18" viewBox="0 0 18 18" fill="none" xmlns="http://www.w3.org/2000/svg">
<path d="M8.75391 4.26465C6.26953 4.26465 4.26562 6.26855 4.26562 8.75293C4.26562 11.2373 6.26953 13.2412 8.75391 13.2412C11.2383 13.2412 13.2422 11.2373 13.2422 8.75293C13.2422 6.26855 11.2383 4.26465 8.75391 4.26465ZM8.75391 11.6709C7.14844 11.6709 5.83594 10.3623 5.83594 8.75293C5.83594 7.14355 7.14453 5.83496 8.75391 5.83496C10.3633 5.83496 11.6719 7.14355 11.6719 8.75293C11.6719 10.3623 10.3594 11.6709 8.75391 11.6709ZM14.4727 4.08105C14.4727 4.66309 14.0039 5.12793 13.4258 5.12793C12.8438 5.12793 12.3789 4.65918 12.3789 4.08105C12.3789 3.50293 12.8477 3.03418 13.4258 3.03418C14.0039 3.03418 14.4727 3.50293 14.4727 4.08105ZM17.4453 5.14355C17.3789 3.74121 17.0586 2.49902 16.0313 1.47559C15.0078 0.452148 13.7656 0.131836 12.3633 0.0615234C10.918 -0.0205078 6.58594 -0.0205078 5.14063 0.0615234C3.74219 0.12793 2.5 0.448242 1.47266 1.47168C0.445313 2.49512 0.128906 3.7373 0.0585937 5.13965C-0.0234375 6.58496 -0.0234375 10.917 0.0585937 12.3623C0.125 13.7646 0.445313 15.0068 1.47266 16.0303C2.5 17.0537 3.73828 17.374 5.14063 17.4443C6.58594 17.5264 10.918 17.5264 12.3633 17.4443C13.7656 17.3779 15.0078 17.0576 16.0313 16.0303C17.0547 15.0068 17.375 13.7646 17.4453 12.3623C17.5273 10.917 17.5273 6.58887 17.4453 5.14355ZM15.5781 13.9131C15.2734 14.6787 14.6836 15.2686 13.9141 15.5771C12.7617 16.0342 10.0273 15.9287 8.75391 15.9287C7.48047 15.9287 4.74219 16.0303 3.59375 15.5771C2.82812 15.2725 2.23828 14.6826 1.92969 13.9131C1.47266 12.7607 1.57813 10.0264 1.57813 8.75293C1.57813 7.47949 1.47656 4.74121 1.92969 3.59277C2.23438 2.82715 2.82422 2.2373 3.59375 1.92871C4.74609 1.47168 7.48047 1.57715 8.75391 1.57715C10.0273 1.57715 12.7656 1.47559 13.9141 1.92871C14.6797 2.2334 15.2695 2.82324 15.5781 3.59277C16.0352 4.74512 15.9297 7.47949 15.9297 8.75293C15.9297 10.0264 16.0352 12.7646 15.5781 13.9131Z" fill="white"/>
</svg>
