<svg width="18" height="18" viewBox="0 0 18 18" fill="none" xmlns="http://www.w3.org/2000/svg">
<path d="M3.91719 17.4996H0.289063V5.81602H3.91719V17.4996ZM2.10117 4.22227C0.941016 4.22227 0 3.26133 0 2.10117C8.3039e-09 1.54391 0.221373 1.00947 0.615419 0.615419C1.00947 0.221373 1.54391 0 2.10117 0C2.65844 0 3.19288 0.221373 3.58692 0.615419C3.98097 1.00947 4.20234 1.54391 4.20234 2.10117C4.20234 3.26133 3.26094 4.22227 2.10117 4.22227ZM17.4961 17.4996H13.8758V11.8121C13.8758 10.4566 13.8484 8.71836 11.9895 8.71836C10.1031 8.71836 9.81406 10.191 9.81406 11.7145V17.4996H6.18984V5.81602H9.66953V7.40977H9.72031C10.2047 6.4918 11.3879 5.52305 13.1531 5.52305C16.825 5.52305 17.5 7.94102 17.5 11.0816V17.4996H17.4961Z" fill="white"/>
</svg>
