<svg width="23" height="30" viewBox="0 0 23 30" fill="none" xmlns="http://www.w3.org/2000/svg">
<g clip-path="url(#clip0_2_1095)">
<path d="M3.75 0C1.68164 0 0 1.68164 0 3.75V26.25C0 28.3184 1.68164 30 3.75 30H18.75C20.8184 30 22.5 28.3184 22.5 26.25V9.375H15C13.9629 9.375 13.125 8.53711 13.125 7.5V0H3.75ZM15 0V7.5H22.5L15 0ZM3.75 4.6875C3.75 4.17187 4.17187 3.75 4.6875 3.75H8.4375C8.95313 3.75 9.375 4.17187 9.375 4.6875C9.375 5.20313 8.95313 5.625 8.4375 5.625H4.6875C4.17187 5.625 3.75 5.20313 3.75 4.6875ZM3.75 8.4375C3.75 7.92187 4.17187 7.5 4.6875 7.5H8.4375C8.95313 7.5 9.375 7.92187 9.375 8.4375C9.375 8.95313 8.95313 9.375 8.4375 9.375H4.6875C4.17187 9.375 3.75 8.95313 3.75 8.4375ZM11.25 12.6562C11.7656 12.6562 12.1875 13.0781 12.1875 13.5938V14.6074C12.6855 14.6777 13.166 14.7891 13.5996 14.9062C14.0977 15.041 14.3965 15.5508 14.2617 16.0547C14.127 16.5586 13.6172 16.8516 13.1133 16.7168C12.4629 16.541 11.8242 16.4121 11.2324 16.4062C10.7402 16.4004 10.2129 16.5117 9.84961 16.7285C9.51563 16.9277 9.375 17.1562 9.375 17.4785C9.375 17.6953 9.45117 17.8594 9.80273 18.0703C10.207 18.3105 10.7754 18.4863 11.5137 18.709L11.543 18.7148C12.2051 18.9141 13.0254 19.1602 13.6699 19.5703C14.3789 20.0156 14.9824 20.7246 15 21.8086C15.0176 22.9395 14.4375 23.7598 13.6582 24.2461C13.207 24.5273 12.6973 24.6914 12.1875 24.7793V25.7812C12.1875 26.2969 11.7656 26.7188 11.25 26.7188C10.7344 26.7188 10.3125 26.2969 10.3125 25.7812V24.7383C9.65625 24.6152 9.04102 24.4043 8.50195 24.2168C8.37891 24.1758 8.25586 24.1348 8.13867 24.0938C7.64648 23.9297 7.38281 23.3965 7.54688 22.9102C7.71094 22.4238 8.24414 22.1543 8.73047 22.3184C8.87695 22.3652 9.01172 22.4121 9.14648 22.459C9.94336 22.7285 10.5879 22.9512 11.2734 22.9688C11.8066 22.9863 12.3223 22.8691 12.6621 22.6582C12.9609 22.4707 13.125 22.2305 13.1191 21.8379C13.1133 21.5684 13.0137 21.3809 12.668 21.1582C12.2695 20.9063 11.7012 20.7246 10.9687 20.502L10.875 20.4727C10.2305 20.2793 9.45117 20.0449 8.83594 19.6699C8.13281 19.248 7.51172 18.5625 7.50586 17.4844C7.5 16.3477 8.13867 15.5625 8.90039 15.1113C9.33984 14.8535 9.82617 14.6895 10.3125 14.6016V13.5938C10.3125 13.0781 10.7344 12.6562 11.25 12.6562Z" fill="#06B6D4"/>
</g>
<defs>
<clipPath id="clip0_2_1095">
<path d="M0 0H22.5V30H0V0Z" fill="white"/>
</clipPath>
</defs>
</svg>
