<svg width="18" height="18" viewBox="0 0 18 18" fill="none" xmlns="http://www.w3.org/2000/svg">
<path d="M17.5115 0.197009C17.8665 0.443103 18.0529 0.868494 17.9861 1.29388L15.7361 15.9189C15.6833 16.2599 15.4759 16.5587 15.1736 16.7275C14.8712 16.8962 14.5091 16.9173 14.1892 16.7837L9.9845 15.0365L7.57629 17.6415C7.2634 17.9826 6.77122 18.0951 6.33879 17.9263C5.90637 17.7576 5.62512 17.3392 5.62512 16.8751V13.9361C5.62512 13.7954 5.67786 13.6619 5.77278 13.5599L11.665 7.12982C11.8689 6.90834 11.8618 6.56732 11.6509 6.35638C11.44 6.14545 11.0989 6.13138 10.8775 6.33178L3.72668 12.6845L0.622388 11.1306C0.249731 10.9443 0.0106689 10.5716 0.000122031 10.1568C-0.0104248 9.74193 0.207544 9.35521 0.566138 9.14779L16.3161 0.147791C16.6923 -0.0666624 17.1564 -0.0455687 17.5115 0.197009Z" fill="white"/>
</svg>
