<svg width="24" height="24" viewBox="0 0 24 24" fill="none" xmlns="http://www.w3.org/2000/svg">
<g clip-path="url(#clip0_2_1115)">
<path d="M12 0C12.2156 0 12.4313 0.046875 12.6281 0.135938L21.4547 3.88125C22.486 4.31719 23.2547 5.33438 23.25 6.5625C23.2266 11.2125 21.3141 19.7203 13.2375 23.5875C12.4547 23.9625 11.5453 23.9625 10.7625 23.5875C2.68596 19.7203 0.773459 11.2125 0.750021 6.5625C0.745334 5.33438 1.51408 4.31719 2.54533 3.88125L11.3766 0.135938C11.5688 0.046875 11.7844 0 12 0ZM12 3.13125V20.85C18.4688 17.7188 20.2078 10.7859 20.25 6.62813L12 3.13125Z" fill="white"/>
</g>
<defs>
<clipPath id="clip0_2_1115">
<path d="M0 0H24V24H0V0Z" fill="white"/>
</clipPath>
</defs>
</svg>
